<?xml version="1.0" encoding="utf-8"?>
<!-- Generator: Adobe Illustrator 16.0.0, SVG Export Plug-In . SVG Version: 6.00 Build 0)  -->
<!DOCTYPE svg PUBLIC "-//W3C//DTD SVG 1.1//EN" "http://www.w3.org/Graphics/SVG/1.1/DTD/svg11.dtd">
<svg version="1.1" id="Layer_1" xmlns="http://www.w3.org/2000/svg" xmlns:xlink="http://www.w3.org/1999/xlink" x="0px" y="0px"
	 width="1175.666px" height="331px" viewBox="0 0 1175.666 331" enable-background="new 0 0 1175.666 331" xml:space="preserve">
<g>
	<path fill="#20783C" d="M91.736,194.41c-1.8,7.596-0.775,15.625,2.165,22.795c3.062,7.475,8.173,13.716,13.464,19.718
		c4.214,4.781,8.364,9.585,12.07,14.741V62.741c-0.623-0.292-1.263-0.546-1.941-0.709c-1.87-0.448-3.808-0.45-5.717-0.597
		c-1.992-0.154-3.975-0.469-5.914-0.956c-5.916-1.484-11.514-4.296-16.1-8.338c-0.293-0.258-0.528-0.559-0.811-0.825
		c0.913,2.324,1.666,4.724,2.168,7.249c0.521,2.607,0.795,5.284,0.801,7.96c5.594,2.594,11.92,4.077,16.275,8.711
		c2.315,2.464,3.827,5.604,4.173,8.981c0.365,3.566-0.593,7.036-1.585,10.425c-0.353-3.371-0.805-6.752-1.97-9.955
		c-1.819-4.993-6.091-8.353-10.931-10.294c-2.09-0.839-4.314-1.191-6.459-1.842c-0.281,1.628-0.688,3.233-1.232,4.797
		c1.088,2.189,2.137,4.4,3.192,6.607c3.378,7.057,6.952,14.003,10.626,20.909c4.025,7.576,8.128,15.237,10.424,23.551
		c2.28,8.251,2.549,16.978,0.154,25.237c-2.313,7.96-6.979,14.669-11.971,21.164c-0.365,0.476-0.728,0.955-1.092,1.432
		c0.018,0.13,0.036,0.259,0.054,0.388c0.358,2.729,0.694,5.457,1.198,8.16c1.709,9.229,6.449,17.371,11.24,25.306
		c0.634,1.051,0.986,1.723,0.986,1.723s-0.682-0.224-1.863-0.756c-0.603-0.253-1.285-0.627-2.018-1.14
		c-0.775-0.474-1.608-1.069-2.399-1.845c-1.729-1.435-3.362-3.491-4.819-5.86c-0.689-1.198-1.387-2.463-1.916-3.808
		c-0.614-1.322-1.002-2.725-1.457-4.115c-0.547-1.672-0.838-3.494-1.072-5.233c-0.431-3.217-0.496-6.559-0.145-9.84
		C95.988,183.866,93.076,188.748,91.736,194.41z"/>
	<path fill="#20783C" d="M85.821,59.165c-0.266-2.712-0.864-5.383-1.556-7.923c-0.75-2.535-1.625-4.935-2.531-7.151
		c-1.005-2.188-1.908-4.223-2.859-5.985c-0.02-0.039-0.038-0.067-0.057-0.104H74.65c0.486,1.75,0.957,3.504,1.455,5.251
		c1.203,4.219,2.213,8.677,4.066,12.672c1.334,2.876,3.437,5.146,5.877,7.036C86.054,61.697,86,60.432,85.821,59.165z"/>
	<path fill="#20783C" d="M85.601,68.744c-0.125-0.144-0.256-0.271-0.379-0.421c0.118,0.195,0.233,0.392,0.352,0.587
		C85.582,68.854,85.593,68.798,85.601,68.744z"/>
	<path fill="#20783C" d="M88.166,41.45c1.575,2.183,3.615,4.055,5.7,5.874c1.902,1.659,4.163,3.005,6.408,4.141
		c2.696,1.366,5.554,2.415,8.493,3.127c3.477,0.842,7.256,1.139,10.668,2.301V38.001H85.789
		C86.509,39.175,87.289,40.337,88.166,41.45z"/>
	<path fill="#20783C" d="M41.978,66.263c4.105-4.232,9.016-7.86,12.436-12.715c3.25-4.61,4.371-10.266,6.109-15.547H35.266v37.867
		C36.935,72.332,39.167,69.16,41.978,66.263z"/>
	<path fill="#20783C" d="M115.748,253.061c-1.684-1.989-3.42-3.939-5.193-5.857c-6.502-7.036-12.673-14.101-18.175-21.959
		c0.038,4.547,0.233,9.057,1.854,13.357c1.752,4.647,4.791,8.528,7.424,12.686c2.984,4.72,5.553,9.857,5.037,15.609
		c-0.512,5.726-3.875,10.238-7.494,14.462c0.561-1.861,1.125-3.721,1.605-5.604c0.797-3.145,1.457-6.453,1.107-9.71
		c-0.59-5.508-4.448-9.316-7.507-13.598c-1.851-2.588-3.341-5.432-4.247-8.49c-1.012-3.404-1.175-6.915-0.935-10.437
		c0.243-3.548,0.778-7.097,0.311-10.648c-0.452-3.439-1.851-6.584-3.067-9.796c-1.23-3.25-2.06-6.572-2.227-10.05
		c-0.135-2.767,0.234-5.777,0.715-8.499c0.877-4.983,3.119-9.403,6.004-13.518c3.004-4.275,6.418-8.237,9.582-12.39
		c8.205-10.781,13.861-25.414,8.09-38.59c-2.578-5.886-6.002-11.438-7.855-17.625c0.896,2.991,0.506,6.273,0.342,9.34
		c-0.509,9.55-2.76,17.652-8.572,25.409c-1.419,1.893-3.064,3.602-4.83,5.17c-1.547,1.375-4.402,2.724-5.559,4.373
		c5.523-7.896,9.742-15.884,11.676-25.409c1.694-8.328,2.654-17.293,1.393-25.746c-1.176-7.899-4.854-14.775-8.427-21.758
		c-1.454,2.077-3.11,4.025-4.776,5.971c-3.469,4.05-4.721,8.176-4.653,13.484c0.028,2.307,0.298,4.61,0.624,6.894
		c0.289,2.065,0.586,4.129,0.852,6.197c0.359,2.783,0.504,4.366,0.504,4.366s-0.657-1.555-1.711-4.257
		c-0.516-1.35-1.152-3.022-1.825-4.932c-2.818-8.008-4.569-16.763,0.378-24.297c1.236-1.878,2.754-3.524,4.061-5.342
		c1.133-1.571,2.088-3.319,2.932-5.129c-2.432-4.571-4.699-8.589-6.693-13.489c-0.398,1.539-0.883,3.028-1.478,4.4
		c-0.454,1.267-1.134,2.392-1.688,3.489c-0.614,1.062-1.214,2.055-1.854,2.921c-1.211,1.758-2.424,3.116-3.292,4.006
		c-0.881,0.889-1.429,1.372-1.429,1.372s0.186-0.688,0.584-1.854c0.384-1.139,0.928-2.769,1.584-4.719
		c0.309-0.961,0.641-2.002,0.993-3.104c0.308-1.097,0.634-2.254,0.964-3.452c0.365-1.18,0.551-2.436,0.852-3.678
		c0.193-1.26,0.504-2.523,0.603-3.806c0.215-1.273,0.228-2.554,0.347-3.816c-0.045-1.255,0.127-2.512-0.02-3.713
		c-0.018-0.352-0.066-0.674-0.09-1.02c-0.146-0.671-0.291-1.337-0.43-2.047c-0.656-3.364-2.328-6.445-3.336-9.723
		c-0.062-0.2-0.125-0.343-0.188-0.503h-2.178c-0.896,1.632-1.651,4.463-1.904,5.16c-2.879,7.931-4.24,16.688-4.653,25.085
		c0,2.314-0.099,4.607,0.032,6.922c0.732,13.063,6.578,25.152,7.59,38.163c0.826,10.602-1.352,21.164-0.74,31.767
		c0.183,3.188,0.83,6.308,1.758,9.356c1.57,5.166,4.029,9.997,5.912,15.043c0.576,1.543,1.096,3.104,1.537,4.692
		c0.471,1.694,0.846,3.417,1.083,5.162c0.308,2.268,0.499,4.58,0.214,6.86c-0.252,2.018-0.951,3.949-1.863,5.758
		c-0.929,1.832-1.908,3.6-2.578,5.553c-1.076,3.142-2.168,6.546-2.523,9.851c-0.061,0.57-0.711,2.517-0.391,2.934
		c-0.521-0.672-1.019-1.217-1.252-2.056c-1.105-3.92,0.607-8.128,1.425-11.913c0.153-0.711-4.23,4.436-6.44,7.891
		c-1.928,3.01-3.801,6.072-5.274,9.338c-1.55,3.43-2.601,7.055-3.493,10.706c-1.627,6.658-2.457,13.499-4.195,20.131
		c-0.1-0.506-0.203-1.012-0.292-1.521c-1.175-6.642-0.811-13.879,0.534-20.467c1.486-7.279,4.478-14.812,9.025-20.724
		c4.266-5.553,11.744-10.283,12.195-17.902c0.217-3.638-1.221-7.135-2.482-10.466c-1.166-3.071-2.216-6.157-3.035-9.338
		c-0.871-3.382-2.044-6.695-2.8-10.103c-0.474,0.807-0.951,1.614-1.429,2.421c-4.102,6.935-8.451,13.747-13.969,19.659
		c-3.992,4.275-8.546,7.835-13.159,11.35V289.64h84.169v-32.042C118.234,256.063,117.01,254.546,115.748,253.061z"/>
	<path fill="#20783C" d="M46.545,127.74c4.854-6.216,10.417-11.585,12.371-20.829c0.157-0.746,0.302-1.497,0.445-2.248
		c0.054-0.287,0.108-0.573,0.163-0.858c0.209-1.094,0.266-1.392,0.164-0.882c-0.035,0.179-0.087,0.458-0.164,0.836
		c-0.791-3.299-1.672-6.573-2.504-9.86c-1.454-5.77-2.662-11.56-3.143-17.499c-0.367-4.54-0.666-9.175,0.177-13.675
		c-0.099,0.064-0.221,0.176-0.333,0.213c-1.131,0.373-2.369,1.598-3.299,2.309c-1.713,1.316-3.369,2.717-4.951,4.187
		c-2.171,2.015-4.191,4.189-5.918,6.599c-1.732,2.422-3.124,5.057-4.288,7.792v98.278c2.739-2.493,5.438-5.034,7.978-7.73
		c4.064-4.308,7.683-9.02,10.518-14.232c2.684-4.937,4.682-10.247,5.928-15.725c1.148-5.053,1.584-10.216,1.681-15.39
		c0.103-5.716-0.115-11.436-0.163-17.154c-0.032-3.799-0.15-5.324-0.538-2.351c-0.808,6.208-2.38,12.094-5.714,16.729
		c-3.5,4.863-9.155,7.8-10.545,15.095c-0.855,4.501-0.205,9.222-0.522,13.808c-1.083-3.921-2.303-7.859-2.639-12.056
		c-0.452-5.604,1.271-9.944,4.07-13.739C45.716,128.808,46.128,128.269,46.545,127.74z"/>
</g>
<g>
	<path fill="#20783C" d="M280.911,162.31c0,8.736,6.05,13.299,18.152,13.687c0.517,0,0.776,0.259,0.776,0.776v2.33
		c0,0.519-0.259,0.776-0.776,0.776h-61.737c-0.519,0-0.776-0.258-0.776-0.776v-2.33c0-0.517,1.617-0.776,4.854-0.776
		c3.235,0,6.924-0.711,11.066-2.136c6.342-2.07,9.513-5.565,9.513-10.483v-46.303c0-0.646-0.097-1.068-0.292-1.262
		c-0.194-0.194-0.616-0.291-1.262-0.291h-76.492c-0.648,0-1.068,0.097-1.262,0.291c-0.194,0.194-0.291,0.616-0.291,1.262v47.273
		c0,7.766,5.727,11.648,17.182,11.648c0.517,0,0.776,0.259,0.776,0.776v2.33c0,0.519-0.228,0.776-0.679,0.776h-53.583
		c-0.519,0-0.776-0.258-0.776-0.776v-2.33c0-0.517,0.646-0.776,1.941-0.776c10.807,0,16.211-4.626,16.211-13.881V58.542
		c0-7.572-4.499-11.583-13.493-12.037c-1.359-0.064-2.038-0.355-2.038-0.874v-1.844c0-0.517,0.226-0.776,0.679-0.776h48.729
		c0.518,0,0.777,0.259,0.777,0.776v1.844c0,0.389-0.616,0.583-1.844,0.583c-9.255,0-13.881,4.563-13.881,13.687v44.847
		c0,0.647,0.097,1.068,0.291,1.262c0.194,0.194,0.614,0.292,1.262,0.292h76.492c0.646,0,1.068-0.097,1.262-0.292
		c0.194-0.194,0.292-0.614,0.292-1.262v-46.4c-0.13-0.583-0.211-1.116-0.243-1.602c-0.034-0.485-0.146-1.245-0.34-2.281
		c-0.454-2.199-2.751-3.995-6.892-5.387c-4.142-1.391-8.833-2.281-14.075-2.669c-0.519,0-0.776-0.258-0.776-0.777v-1.844
		c0-0.517,0.226-0.776,0.679-0.776h56.01c0.518,0,0.777,0.259,0.777,0.776v1.844c0,0.389-0.616,0.583-1.845,0.583
		c-9.578,0-14.366,4.563-14.366,13.687V162.31z"/>
	<path fill="#20783C" d="M357.305,179.104c0,0.519-0.259,0.776-0.775,0.776h-49.604c-0.519,0-0.776-0.258-0.776-0.776v-2.33
		c0-0.517,0.42-0.776,1.261-0.776c8.866-0.388,14.853-5.111,17.959-14.172l39.604-114.641c0.063-0.129,0.097-0.291,0.097-0.485
		l-1.067-3.203c0-0.323,0.129-0.485,0.389-0.485h19.414c0.129,0.065,0.306,0.13,0.534,0.194c0.226,0.065,0.402,0.259,0.533,0.583
		l41.061,115.223c0.906,1.747,1.635,3.333,2.185,4.756c0.55,1.424,1.181,2.718,1.894,3.883c1.553,2.654,4.108,4.693,7.668,6.116
		c2.977,1.489,5.693,2.232,8.154,2.232c0.518,0,0.776,0.291,0.776,0.874v2.233c0,0.519-0.259,0.776-0.776,0.776h-59.408
		c-0.518,0-0.775-0.258-0.775-0.776v-2.33c0-0.517,1.196-0.84,3.592-0.971c2.393-0.129,4.367-0.258,5.92-0.388
		c8.995-0.971,13.494-4.012,13.494-9.125c0-0.388-0.066-0.84-0.195-1.359l-14.657-41.353c-0.065-0.129-0.194-0.42-0.388-0.874
		c-0.777-2.199-2.137-3.3-4.078-3.3h-34.459c-1.941,0-3.463,1.068-4.563,3.203c-0.194,0.454-0.291,0.713-0.291,0.777l-14.561,42.614
		v0.874c0,1.684,0.873,3.203,2.621,4.562c3.945,3.042,9.253,4.563,15.919,4.563h2.524c0.517,0,0.775,0.259,0.775,0.776V179.104z
		 M386.038,108.63c1.165,0,1.747-0.485,1.747-1.456c0-0.517-0.131-1.1-0.389-1.747l-14.463-39.799
		c-0.647-1.747-1.133-2.621-1.456-2.621c-0.325,0-0.842,0.907-1.554,2.718l-13.59,39.702c-0.259,0.647-0.388,1.344-0.388,2.087
		c0,0.745,0.485,1.116,1.456,1.116H386.038z"/>
	<path fill="#20783C" d="M451.755,179.88c-0.519,0-0.776-0.258-0.776-0.776v-2.33c0-0.517,0.258-0.776,0.776-0.776h2.33
		c5.565,0,10.419-1.165,14.561-3.495c1.683-0.971,3.073-2.475,4.174-4.514c1.1-2.039,1.65-4.32,1.65-6.844V58.444
		c0-4.012-2.589-7.086-7.766-9.222c-3.625-1.553-7.475-2.33-11.552-2.33h-2.135c-0.52,0-0.777-0.258-0.777-0.777v-2.33
		c0-0.517,0.258-0.776,0.777-0.776h65.717c0.517,0,0.775,0.259,0.775,0.776v2.33c0,0.519-0.259,0.777-0.775,0.777h-4.174
		c-6.666,0-12.557,0.939-17.668,2.815c-1.488,0.519-2.443,1.375-2.863,2.572c-0.422,1.198-0.631,3.252-0.631,6.164v107.651
		c0.129,1.101,0.711,2.136,1.747,3.106c1.034,0.971,2.2,1.456,3.495,1.456h38.343c5.759,0,11.421-3.397,16.987-10.192
		c1.488-1.811,3.332-4.223,5.533-7.232c2.199-3.009,3.559-4.708,4.076-5.096c2.07-1.553,3.107-1.52,3.107,0.097
		c0,0.388-0.098,0.776-0.292,1.165l-14.657,28.733c-0.582,1.165-1.262,1.747-2.039,1.747H451.755z"/>
	<path fill="#20783C" d="M568.05,179.88c-0.519,0-0.776-0.258-0.776-0.776v-2.33c0-0.517,0.258-0.776,0.776-0.776h2.33
		c5.565,0,10.418-1.165,14.561-3.495c1.682-0.971,3.073-2.475,4.174-4.514c1.1-2.039,1.65-4.32,1.65-6.844V58.444
		c0-4.012-2.589-7.086-7.766-9.222c-3.625-1.553-7.475-2.33-11.552-2.33h-2.135c-0.52,0-0.777-0.258-0.777-0.777v-2.33
		c0-0.517,0.258-0.776,0.777-0.776h65.717c0.517,0,0.776,0.259,0.776,0.776v2.33c0,0.519-0.26,0.777-0.776,0.777h-4.175
		c-6.666,0-12.556,0.939-17.667,2.815c-1.489,0.519-2.443,1.375-2.863,2.572c-0.422,1.198-0.631,3.252-0.631,6.164v107.651
		c0.129,1.101,0.711,2.136,1.747,3.106c1.034,0.971,2.199,1.456,3.495,1.456h38.343c5.759,0,11.421-3.397,16.987-10.192
		c1.488-1.811,3.332-4.223,5.533-7.232c2.199-3.009,3.558-4.708,4.077-5.096c2.07-1.553,3.105-1.52,3.105,0.097
		c0,0.388-0.097,0.776-0.291,1.165l-14.657,28.733c-0.583,1.165-1.263,1.747-2.039,1.747H568.05z"/>
	<path fill="#1A3018" d="M159.955,283.276c0-0.273,0.154-0.411,0.462-0.411h1.437c3.353,0,6.047-0.719,8.083-2.155
		c2.035-1.437,3.053-3.113,3.053-5.03V218.87c0-0.719-0.146-1.121-0.436-1.206c-0.291-0.085-0.642-0.162-1.052-0.231h-19.707
		c-3.182,0.685-5.269,3.13-6.261,7.338c-0.548,2.258-0.873,3.704-0.975,4.337c-0.103,0.633-0.291,0.949-0.564,0.949h-0.924
		c-0.205,0-0.308-0.068-0.308-0.205v-1.694l1.898-16.012c0.206-1.06,0.547-1.591,1.026-1.591c0.479,0,0.992,0.333,1.54,1
		c0.547,0.667,1.591,1.001,3.13,1.001h55.323c1.471,0,2.36-0.171,2.668-0.513c0.308-0.342,0.598-0.675,0.873-1.001
		c0.273-0.325,0.624-0.487,1.052-0.487c0.428,0,0.701,0.171,0.821,0.513c0.12,0.342,0.213,0.702,0.282,1.078l1.899,16.012v1.694
		c0,0.137-0.103,0.205-0.308,0.205h-0.924c-0.274,0-0.461-0.256-0.564-0.77c-0.547-3.421-1.334-6.133-2.36-8.134
		c-1.027-2.001-2.652-3.241-4.875-3.721h-19.758c-0.411,0.069-0.762,0.146-1.052,0.231c-0.292,0.085-0.437,0.487-0.437,1.206v56.811
		c0,1.917,1.018,3.593,3.054,5.03c2.035,1.437,4.729,2.155,8.083,2.155h1.488c0.273,0,0.41,0.137,0.41,0.411v1.231
		c0,0.274-0.137,0.411-0.41,0.411h-35.257c-0.274,0-0.411-0.136-0.411-0.411V283.276z"/>
	<path fill="#1A3018" d="M238.743,248.122c-0.411-0.068-1.01-0.29-1.796-0.667c-2.84-1.3-5.064-1.95-6.671-1.95
		c-1.609,0-3.293,1.001-5.055,3.002c-1.762,2.001-2.643,3.806-2.643,5.414v23.196c0,2.566,1.488,4.277,4.465,5.132
		c1.3,0.342,2.515,0.59,3.644,0.744c1.129,0.154,1.855,0.3,2.181,0.436c0.325,0.137,0.488,0.402,0.488,0.795
		c0,0.394-0.172,0.625-0.513,0.693H207.13c-0.342-0.068-0.513-0.308-0.513-0.718c0-0.616,0.804-1.026,2.412-1.232
		c3.695-0.547,5.542-2.497,5.542-5.851V249.97c0-1.437-0.787-2.429-2.36-2.977c-0.685-0.239-1.42-0.436-2.207-0.59
		c-0.788-0.154-1.411-0.299-1.873-0.436c-0.462-0.136-0.753-0.265-0.873-0.385c-0.12-0.12-0.18-0.376-0.18-0.77
		c0-0.393,0.257-0.727,0.77-1l13.086-6.159c0.411-0.205,0.667-0.308,0.77-0.308c0.581,0,0.872,0.41,0.872,1.231v8.314
		c0,0.411,0.103,0.616,0.308,0.616c0.273,0,0.975-0.803,2.104-2.412c3.25-4.55,5.936-6.825,8.057-6.825
		c1.197,0,3.036,0.479,5.517,1.437c2.48,0.958,3.721,1.763,3.721,2.412c0,0.788-0.394,1.985-1.181,3.592
		C240.316,247.319,239.53,248.122,238.743,248.122z"/>
	<path fill="#1A3018" d="M276.748,278.581c0.838,0.531,1.804,0.795,2.899,0.795c1.095,0,2.01-0.282,2.746-0.847
		c0.735-0.564,1.24-0.847,1.514-0.847c0.273,0,0.41,0.368,0.41,1.104c0,0.736-0.342,1.36-1.026,1.873
		c-5.132,3.764-8.604,5.646-10.417,5.646c-2.19,0-3.97-2.275-5.337-6.826c-0.103-0.341-0.188-0.496-0.257-0.462
		c-4.243,3.182-6.911,5.098-8.006,5.748c-2.806,1.607-5.62,1.864-8.442,0.77c-2.823-1.094-4.868-2.907-6.133-5.44
		c-0.616-1.3-0.924-2.686-0.924-4.157c0-2.908,1.078-5.217,3.233-6.928c2.155-1.71,6.261-3.353,12.316-4.927
		c2.053-0.547,3.883-1.249,5.491-2.104c1.608-0.855,2.455-1.402,2.541-1.642c0.085-0.239,0.128-0.462,0.128-0.667v-9.853
		c0-3.866-1.506-6.586-4.516-8.16c-0.993-0.513-2.181-0.77-3.567-0.77s-2.789,0.547-4.208,1.642c-1.42,1.095-2.13,2.652-2.13,4.67
		l0.256,2.001c-0.205,0.411-1.437,1.096-3.695,2.053c-2.258,0.958-3.559,1.471-3.9,1.54c-0.548,0-0.821-0.659-0.821-1.976
		c0-1.316,0.393-2.779,1.181-4.388c0.787-1.608,1.899-3.079,3.336-4.414c3.353-3.113,7.185-4.67,11.496-4.67
		c4.311,0,7.817,1.189,10.521,3.566c2.702,2.378,4.054,5.209,4.054,8.494v27.045C275.49,277.341,275.909,278.05,276.748,278.581z
		 M251.832,274.962c0,1.642,0.633,3.071,1.899,4.285c1.266,1.215,2.711,1.822,4.336,1.822s3.601-0.693,5.928-2.078
		c2.326-1.386,3.49-2.814,3.49-4.285v-10.418c0-0.376-0.086-0.564-0.257-0.564c-0.171,0-0.291,0.018-0.359,0.051l-11.906,5.542
		c-1.232,0.89-2.062,1.642-2.489,2.258C252.045,272.191,251.832,273.32,251.832,274.962z"/>
	<path fill="#1A3018" d="M287.09,284.918c-0.342-0.068-0.513-0.308-0.513-0.718c0-0.616,0.804-1.026,2.412-1.232
		c3.695-0.547,5.542-2.497,5.542-5.851V249.97c0-1.437-0.788-2.429-2.361-2.977c-0.685-0.239-1.42-0.436-2.207-0.59
		c-0.788-0.154-1.411-0.299-1.873-0.436c-0.462-0.136-0.753-0.265-0.873-0.385c-0.12-0.12-0.18-0.376-0.18-0.77
		c0-0.393,0.257-0.727,0.77-1l13.086-6.159c0.411-0.205,0.667-0.308,0.77-0.308c0.582,0,0.873,0.41,0.873,1.231v38.541
		c0,3.354,1.848,5.304,5.542,5.851c1.607,0.206,2.412,0.564,2.412,1.078s-0.172,0.804-0.514,0.873H287.09z M297.791,222.924
		c-1.42,0-2.668-0.444-3.746-1.334c-1.078-0.889-1.617-2.13-1.617-3.721s0.513-2.848,1.54-3.772s2.249-1.386,3.669-1.386
		c1.419,0,2.617,0.548,3.592,1.643c0.975,1.095,1.462,2.275,1.462,3.541c0,1.266-0.461,2.421-1.385,3.464
		C300.382,222.403,299.21,222.924,297.791,222.924z"/>
	<path fill="#1A3018" d="M354.319,268.753l-0.103-10.829c0-4.414-0.377-7.51-1.129-9.289c-0.754-1.778-1.711-3.122-2.875-4.028
		c-1.162-0.906-2.729-1.36-4.695-1.36s-6.133,1.54-12.496,4.619c-0.855,0.513-1.301,0.993-1.334,1.437v27.61
		c0,3.456,1.848,5.44,5.542,5.953c1.608,0.24,2.412,0.625,2.412,1.155c0,0.531-0.171,0.83-0.513,0.898H316.24
		c-0.343-0.068-0.514-0.308-0.514-0.718c0-0.65,0.804-1.095,2.412-1.334c3.695-0.513,5.543-2.497,5.543-5.953v-29.458
		c0-1.437-0.787-2.429-2.361-2.977c-0.685-0.239-1.42-0.436-2.207-0.59c-0.787-0.154-1.41-0.299-1.873-0.436
		c-0.461-0.136-0.752-0.265-0.872-0.385c-0.12-0.12-0.18-0.376-0.18-0.77c0-0.393,0.257-0.727,0.771-1l13.086-6.159
		c0.41-0.205,0.667-0.308,0.77-0.308c0.582,0,0.873,0.41,0.873,1.231v8.006c0.103,0.342,0.238,0.513,0.41,0.513
		c0.205,0,0.94-0.308,2.207-0.924c2.941-1.471,5.901-2.891,8.878-4.259c2.977-1.368,5.44-2.053,7.39-2.053
		c7.904,0,11.855,7.202,11.855,21.605l-0.462,14.985v2.977c0,2.668,1.335,4.414,4.003,5.234c1.129,0.377,2.215,0.642,3.259,0.796
		c1.044,0.154,1.728,0.3,2.053,0.436c0.325,0.137,0.487,0.411,0.487,0.821c0,0.41-0.172,0.65-0.513,0.718h-24.736
		c-0.343-0.068-0.513-0.308-0.513-0.718c0-0.65,0.803-1.095,2.412-1.334c3.66-0.513,5.49-2.634,5.49-6.364
		C354.182,274.792,354.319,272.209,354.319,268.753z"/>
	<path fill="#1A3018" d="M376.387,284.918c-0.342-0.068-0.514-0.308-0.514-0.718c0-0.616,0.805-1.026,2.412-1.232
		c3.695-0.547,5.543-2.497,5.543-5.851V249.97c0-1.437-0.787-2.429-2.361-2.977c-0.684-0.239-1.42-0.436-2.206-0.59
		c-0.788-0.154-1.411-0.299-1.873-0.436c-0.462-0.136-0.753-0.265-0.872-0.385c-0.121-0.12-0.18-0.376-0.18-0.77
		c0-0.393,0.256-0.727,0.77-1l13.086-6.159c0.411-0.205,0.668-0.308,0.77-0.308c0.582,0,0.873,0.41,0.873,1.231v38.541
		c0,3.354,1.848,5.304,5.543,5.851c1.607,0.206,2.412,0.564,2.412,1.078s-0.172,0.804-0.514,0.873H376.387z M387.087,222.924
		c-1.42,0-2.669-0.444-3.746-1.334c-1.078-0.889-1.616-2.13-1.616-3.721s0.513-2.848,1.539-3.772s2.249-1.386,3.67-1.386
		c1.419,0,2.617,0.548,3.592,1.643c0.975,1.095,1.463,2.275,1.463,3.541c0,1.266-0.462,2.421-1.386,3.464
		C389.679,222.403,388.506,222.924,387.087,222.924z"/>
	<path fill="#1A3018" d="M443.615,268.753l-0.103-10.829c0-4.414-0.376-7.51-1.129-9.289c-0.753-1.778-1.711-3.122-2.874-4.028
		c-1.163-0.906-2.729-1.36-4.695-1.36c-1.968,0-6.133,1.54-12.496,4.619c-0.855,0.513-1.301,0.993-1.335,1.437v27.61
		c0,3.456,1.848,5.44,5.542,5.953c1.608,0.24,2.412,0.625,2.412,1.155c0,0.531-0.171,0.83-0.513,0.898h-22.889
		c-0.343-0.068-0.513-0.308-0.513-0.718c0-0.65,0.803-1.095,2.412-1.334c3.695-0.513,5.542-2.497,5.542-5.953v-29.458
		c0-1.437-0.787-2.429-2.36-2.977c-0.686-0.239-1.42-0.436-2.207-0.59c-0.787-0.154-1.411-0.299-1.873-0.436
		c-0.462-0.136-0.753-0.265-0.873-0.385c-0.119-0.12-0.18-0.376-0.18-0.77c0-0.393,0.258-0.727,0.771-1l13.087-6.159
		c0.41-0.205,0.666-0.308,0.77-0.308c0.581,0,0.872,0.41,0.872,1.231v8.006c0.103,0.342,0.239,0.513,0.411,0.513
		c0.205,0,0.939-0.308,2.207-0.924c2.941-1.471,5.9-2.891,8.877-4.259c2.977-1.368,5.44-2.053,7.391-2.053
		c7.903,0,11.855,7.202,11.855,21.605l-0.463,14.985v2.977c0,2.668,1.335,4.414,4.004,5.234c1.129,0.377,2.215,0.642,3.258,0.796
		c1.044,0.154,1.728,0.3,2.053,0.436c0.325,0.137,0.488,0.411,0.488,0.821c0,0.41-0.172,0.65-0.514,0.718h-24.736
		c-0.342-0.068-0.513-0.308-0.513-0.718c0-0.65,0.804-1.095,2.412-1.334c3.661-0.513,5.491-2.634,5.491-6.364
		C443.479,274.792,443.615,272.209,443.615,268.753z"/>
	<path fill="#1A3018" d="M502.02,242.272l13.754-0.616c0.787,0,1.3,0.086,1.539,0.257c0.239,0.171,0.496,0.762,0.77,1.771
		c0.273,1.009,0.411,1.959,0.411,2.848c0,0.89-0.085,1.403-0.257,1.54c-0.172,0.137-0.513,0.206-1.025,0.206h-11.394
		c0.205,0.376,0.427,0.77,0.667,1.18c0.239,0.411,0.547,1.095,0.924,2.053c0.376,0.958,0.564,2.438,0.564,4.439
		s-0.487,4.089-1.463,6.261c-0.975,2.173-2.404,4.098-4.285,5.773c-4.174,3.764-9.58,5.645-16.217,5.645
		c-1.744,0-3.661-0.325-5.748-0.975c-0.513,0.548-1.197,1.052-2.053,1.514s-1.693,0.933-2.515,1.411
		c-2.053,1.164-3.079,2.327-3.079,3.49c0,2.909,4.824,4.397,14.473,4.465c9.648,0.069,15.986,0.385,19.014,0.95
		c3.027,0.564,5.38,1.685,7.057,3.361c2.634,2.634,3.951,5.645,3.951,9.032c0,2.908-1.249,5.902-3.746,8.981
		c-4.346,5.44-10.982,9.066-19.912,10.88c-3.182,0.649-6.553,0.975-10.109,0.975c-6.467,0-11.377-1.172-14.729-3.516
		c-3.354-2.344-5.029-5.175-5.029-8.493c0-1.814,0.428-3.31,1.283-4.491c0.854-1.18,1.941-2.292,3.259-3.336
		c1.316-1.044,2.762-2.138,4.336-3.284c1.574-1.147,3.08-2.609,4.517-4.388c-3.284-0.274-6.099-1.318-8.442-3.131
		c-2.344-1.813-3.516-3.592-3.516-5.337c0-1.745,0.463-3.036,1.387-3.875c0.924-0.838,2.053-1.556,3.387-2.155
		c1.334-0.598,2.736-1.155,4.208-1.668c1.471-0.513,2.753-1.18,3.849-2.001c-3.832-1.505-6.791-3.583-8.878-6.235
		c-2.087-2.651-3.13-5.55-3.13-8.699c0-5.85,2.129-10.623,6.389-14.318c4.26-3.695,9.399-5.543,15.422-5.543
		C493.672,237.242,498.461,238.919,502.02,242.272z M474.127,295.798c-0.804,0.787-1.463,1.625-1.976,2.515
		c-0.513,0.889-0.77,2.009-0.77,3.361c0,1.351,0.487,2.771,1.462,4.26c0.976,1.488,2.301,2.831,3.979,4.028
		c3.694,2.737,8.142,4.105,13.342,4.105c5.201,0,9.914-1.514,14.139-4.542c4.226-3.028,6.339-6.347,6.339-9.956
		c0-3.61-1.745-6.03-5.235-7.262c-1.642-0.548-5.867-0.89-12.676-1.026c-6.809-0.137-11.222-0.326-13.24-0.564
		c-0.891,1.026-1.805,1.932-2.746,2.72C475.803,294.224,474.931,295.011,474.127,295.798z M499.557,255.923
		c0-4.824-1.207-8.75-3.618-11.778c-2.412-3.028-5.603-4.542-9.571-4.542c-5.132,0-8.759,2.412-10.88,7.236
		c-0.821,1.847-1.231,3.969-1.231,6.363c0,4.893,1.009,8.964,3.027,12.214c2.464,3.9,5.697,5.851,9.699,5.851
		c4.004,0,7.1-1.352,9.289-4.054S499.557,260.747,499.557,255.923z"/>
	<path fill="#1A3018" d="M614.619,279.992c0.273,0,0.411,0.317,0.411,0.95c0,0.633-0.103,0.984-0.309,1.052
		c-4.653,3.01-8.646,4.516-11.982,4.516s-6.202-1.557-8.597-4.67c-1.163-1.437-2.292-3.028-3.387-4.773
		c-1.096-1.745-2.02-3.079-2.771-4.003c-9.614,8.827-18.15,13.241-25.608,13.241c-4.962,0-9.247-2.044-12.855-6.133
		c-3.61-4.088-5.415-8.699-5.415-13.831c0-7.185,3.918-12.984,11.753-17.397c2.36-1.334,4.909-2.548,7.646-3.644
		c-3.9-3.798-6.312-7.321-7.235-10.572c-0.343-1.3-0.514-2.874-0.514-4.721c0-3.695,1.539-6.68,4.619-8.955
		c3.078-2.275,6.568-3.413,10.469-3.413s7.295,1.138,10.187,3.413s4.337,5.278,4.337,9.006c0,4.414-3.233,8.588-9.699,12.522
		c-0.753,0.445-1.164,0.702-1.232,0.77c-0.068,0.069-0.102,0.214-0.102,0.436c0,0.223,0.195,0.513,0.59,0.873
		c0.393,0.359,0.838,0.762,1.334,1.206c0.496,0.445,1.232,1.112,2.207,2.001c0.975,0.89,1.941,1.728,2.899,2.515
		c0.957,0.787,2.907,3.045,5.851,6.774c2.942,3.729,4.498,5.594,4.67,5.594c0.376,0,0.633-0.137,0.77-0.411l11.753-17.757
		c0.854-1.3,1.282-2.412,1.282-3.336c0-0.923-0.291-1.565-0.872-1.924c-0.582-0.359-1.224-0.616-1.925-0.77
		c-0.701-0.154-1.343-0.308-1.924-0.462c-0.582-0.154-0.873-0.53-0.873-1.129c0-0.598,0.171-0.898,0.514-0.898h18.834
		c0.137,0.24,0.205,0.608,0.205,1.104c0,0.496-0.085,0.813-0.256,0.949c-0.206,0.137-1.335,0.308-3.388,0.513
		c-3.354,0.308-5.68,1.488-6.979,3.541l-15.139,23.966l6.414,11.034c1.916,3.354,4.26,5.03,7.031,5.03
		c1.471,0,2.925-0.325,4.362-0.975C613.131,280.574,614.106,280.164,614.619,279.992z M566.764,280.197
		c3.404,0,6.595-0.813,9.571-2.438c2.977-1.625,5.953-3.686,8.93-6.184c0.581-0.547,0.863-0.975,0.847-1.283
		c-0.018-0.308-0.025-0.496-0.025-0.564c-0.035-0.068-0.052-0.154-0.052-0.257c-4.618-7.937-10.298-14.608-17.038-20.015
		c-0.377-0.308-0.82-0.684-1.334-1.129c-0.514-0.444-1.01-0.667-1.488-0.667c-0.616,0-1.609,0.411-2.977,1.232
		c-2.908,1.711-5.278,4.123-7.107,7.236c-1.831,3.114-2.746,5.971-2.746,8.57c0,4.517,1.386,8.229,4.156,11.137
		C560.271,278.743,563.359,280.197,566.764,280.197z M578.541,230.263c0-6.363-2.686-9.545-8.057-9.545
		c-3.456,0-5.696,1.558-6.723,4.67c-0.309,0.958-0.462,2.353-0.462,4.183c0,1.831,0.7,3.892,2.104,6.184
		c1.402,2.293,3.301,4.175,5.695,5.646c2.121-0.376,3.893-1.762,5.313-4.157C577.831,234.848,578.541,232.521,578.541,230.263z"/>
	<path fill="#1A3018" d="M703.571,282.968c-0.172,0.274-0.591,0.333-1.258,0.18s-1.445-0.231-2.335-0.231s-2.147,0.18-3.771,0.539
		c-1.626,0.359-4.183,0.923-7.673,1.693c-3.489,0.77-6.672,1.155-9.545,1.155c-6.501,0-12.805-1.531-18.912-4.593
		c-6.106-3.062-10.991-7.407-14.651-13.035c-3.661-5.627-5.491-12.154-5.491-19.579c0-7.424,1.83-14.146,5.491-20.168
		c5.337-8.827,13.377-14.575,24.12-17.244c3.421-0.854,6.843-1.283,10.264-1.283c4.688,0,10.247,0.787,16.68,2.36
		c1.95,0.479,3.6,0.975,4.952,1.488c1.351,0.513,2.181,0.77,2.489,0.77l1.539-0.411h1.591c0.411,0,0.616,0.291,0.616,0.873v15.96
		c0,0.342-0.309,0.513-0.924,0.513c-0.616,0-0.976-0.077-1.078-0.231s-0.205-0.342-0.308-0.564
		c-0.103-0.222-0.214-0.453-0.334-0.693c-0.12-0.239-0.239-0.462-0.358-0.667c-0.121-0.206-0.197-0.359-0.231-0.462
		c-5.132-10.298-12.916-15.447-23.351-15.447c-9.409,0-16.765,2.994-22.067,8.981c-5.304,5.987-7.954,13.917-7.954,23.787
		c0,9.871,2.916,18.347,8.75,25.429c5.832,7.082,13.762,10.624,23.786,10.624c5.474,0,10.461-1.625,14.96-4.875
		c4.498-3.25,8.031-7.236,10.598-11.958c0.068-0.206,0.273-0.308,0.615-0.308h0.668c0.341,0,0.513,0.206,0.513,0.616
		c0,0.411-0.103,0.805-0.308,1.181L703.571,282.968z"/>
	<path fill="#1A3018" d="M716.659,261.85c0-6.723,2.387-12.504,7.159-17.346c4.773-4.841,10.495-7.262,17.167-7.262
		c6.671,0,12.471,2.353,17.397,7.057c4.927,4.705,7.39,10.513,7.39,17.423c0,6.911-2.335,12.736-7.005,17.474
		c-4.67,4.739-10.529,7.108-17.577,7.108c-7.049,0-12.899-2.395-17.552-7.185C718.985,274.33,716.659,268.573,716.659,261.85z
		 M729.438,275.065c3.353,5.646,7.92,8.468,13.702,8.468c4.481,0,7.911-1.796,10.289-5.389c2.378-3.592,3.567-8.006,3.567-13.24
		c0-5.235-1.668-10.605-5.004-16.114c-3.336-5.508-7.826-8.263-13.472-8.263c-4.14,0-7.398,1.788-9.776,5.363
		c-2.378,3.576-3.566,8.109-3.566,13.6S726.598,270.173,729.438,275.065z"/>
	<path fill="#1A3018" d="M806.678,268.753l-0.103-10.829c0-4.414-0.377-7.51-1.129-9.289c-0.753-1.778-1.711-3.122-2.874-4.028
		c-1.163-0.906-2.729-1.36-4.695-1.36c-1.968,0-6.133,1.54-12.496,4.619c-0.856,0.513-1.301,0.993-1.335,1.437v27.61
		c0,3.456,1.848,5.44,5.543,5.953c1.607,0.24,2.412,0.625,2.412,1.155c0,0.531-0.172,0.83-0.514,0.898h-22.889
		c-0.342-0.068-0.513-0.308-0.513-0.718c0-0.65,0.803-1.095,2.412-1.334c3.694-0.513,5.542-2.497,5.542-5.953v-29.458
		c0-1.437-0.787-2.429-2.36-2.977c-0.685-0.239-1.42-0.436-2.207-0.59c-0.787-0.154-1.411-0.299-1.873-0.436
		c-0.462-0.136-0.753-0.265-0.872-0.385c-0.121-0.12-0.18-0.376-0.18-0.77c0-0.393,0.256-0.727,0.77-1l13.087-6.159
		c0.41-0.205,0.667-0.308,0.77-0.308c0.581,0,0.872,0.41,0.872,1.231v8.006c0.103,0.342,0.239,0.513,0.411,0.513
		c0.205,0,0.94-0.308,2.206-0.924c2.942-1.471,5.902-2.891,8.879-4.259c2.977-1.368,5.439-2.053,7.39-2.053
		c7.903,0,11.854,7.202,11.854,21.605l-0.461,14.985v2.977c0,2.668,1.334,4.414,4.003,5.234c1.129,0.377,2.214,0.642,3.259,0.796
		c1.043,0.154,1.727,0.3,2.053,0.436c0.324,0.137,0.487,0.411,0.487,0.821c0,0.41-0.172,0.65-0.514,0.718h-24.735
		c-0.343-0.068-0.514-0.308-0.514-0.718c0-0.65,0.804-1.095,2.412-1.334c3.66-0.513,5.491-2.634,5.491-6.364
		C806.541,274.792,806.678,272.209,806.678,268.753z"/>
	<path fill="#1A3018" d="M851.533,249.816c0,0.753-0.282,1.129-0.847,1.129s-1.001-0.411-1.309-1.232
		c-0.821-2.258-2.045-4.259-3.67-6.004c-1.625-1.745-3.635-2.617-6.029-2.617c-3.148,0-5.27,1.574-6.364,4.722
		c-0.342,1.061-0.513,2.155-0.513,3.284s0.718,2.387,2.155,3.772c1.437,1.386,3.798,3.037,7.082,4.953
		c3.284,1.917,5.679,3.541,7.185,4.875c3.421,3.046,5.132,6.569,5.132,10.572s-1.471,7.177-4.413,9.52
		c-2.943,2.343-6.363,3.516-10.264,3.516c-2.088,0-3.978-0.282-5.671-0.847c-1.693-0.565-2.669-0.847-2.926-0.847
		c-0.256,0-0.667,0.282-1.231,0.847c-0.564,0.564-1.019,0.847-1.36,0.847h-0.872c-0.205,0-0.462-1.848-0.77-5.542
		c-0.309-3.695-0.462-5.884-0.462-6.569c0-0.684,0.06-1.061,0.18-1.129c0.119-0.068,0.315-0.103,0.59-0.103
		c0.273,0,0.505,0.086,0.693,0.257c0.188,0.171,0.35,0.385,0.487,0.641c0.136,0.257,0.248,0.522,0.333,0.795
		c0.085,0.274,0.3,0.788,0.642,1.54c2.326,4.961,5.919,7.441,10.777,7.441c2.155,0,3.883-0.795,5.184-2.386
		c1.3-1.591,1.95-3.361,1.95-5.312s-0.514-3.592-1.54-4.927s-2.301-2.548-3.823-3.644c-1.522-1.095-3.174-2.155-4.952-3.182
		c-6.911-4.037-10.367-8.501-10.367-13.394c0-3.661,1.574-6.817,4.722-9.469c3.147-2.651,6.381-3.977,9.699-3.977
		s5.773,0.359,7.365,1.078c1.591,0.718,2.522,1.326,2.797,1.822c0.273,0.497,0.41,2.113,0.41,4.85V249.816z"/>
	<path fill="#1A3018" d="M894.799,280.402c-0.172-0.582-0.394-0.778-0.667-0.59c-0.274,0.188-1.386,0.779-3.336,1.771
		c-6.398,3.182-11.735,4.773-16.012,4.773c-4.277,0-7.356-1.369-9.238-4.105c-0.685-1.026-1.026-2.292-1.026-3.798v-31.305
		c-0.103-0.992-0.547-1.847-1.334-2.566c-1.061-0.889-2.164-1.368-3.31-1.437c-1.147-0.068-1.72-0.418-1.72-1.052
		c0-0.633,0.273-1.018,0.821-1.155l11.752-3.387c0.411-0.136,0.813-0.205,1.206-0.205c0.393,0,0.59,0.291,0.59,0.872v34.436
		c0,2.396,1.061,4.243,3.183,5.543c2.12,1.3,4.832,1.95,8.134,1.95s6.27-1.008,8.904-3.028c0.821-0.649,1.505-1.368,2.053-2.155
		v-27.815c-0.103-0.992-0.548-1.847-1.335-2.566c-1.061-0.889-2.164-1.368-3.31-1.437c-1.146-0.068-1.72-0.418-1.72-1.052
		c0-0.633,0.273-1.018,0.821-1.155l11.752-3.387c0.411-0.136,0.813-0.205,1.206-0.205s0.591,0.342,0.591,1.026v36.437
		c0.171,1.506,0.598,2.583,1.283,3.233c0.684,0.65,1.796,0.975,3.335,0.975l2.977-0.205c0.206,0,0.309,0.197,0.309,0.59
		c0,0.394-0.257,0.71-0.771,0.95l-13.65,5.645c-0.411,0.206-0.762,0.308-1.053,0.308s-0.436-0.428-0.436-1.283V280.402z"/>
	<path fill="#1A3018" d="M934.214,282.968c1.607,0.206,2.412,0.616,2.412,1.232c0,0.41-0.172,0.65-0.514,0.718h-22.888
		c-0.343-0.068-0.514-0.308-0.514-0.718c0-0.616,0.804-1.026,2.412-1.232c3.695-0.547,5.542-2.497,5.542-5.851v-63.996
		c0-1.437-0.787-2.429-2.36-2.977c-0.685-0.239-1.42-0.436-2.207-0.59c-0.787-0.154-1.411-0.299-1.873-0.436
		c-0.462-0.136-0.753-0.265-0.872-0.385c-0.12-0.12-0.18-0.376-0.18-0.77c0-0.393,0.257-0.727,0.77-1l13.087-6.159
		c0.41-0.205,0.667-0.308,0.77-0.308c0.581,0,0.873,0.411,0.873,1.231v75.389C928.672,280.471,930.519,282.421,934.214,282.968z"/>
	<path fill="#1A3018" d="M952.384,245.454c-0.206,0-0.309,0.154-0.309,0.462v28.329c0,2.053,0.453,3.661,1.36,4.824
		c0.906,1.164,2.061,1.745,3.464,1.745c1.402,0,2.625-0.231,3.67-0.693c1.043-0.462,1.95-0.966,2.72-1.514
		c0.77-0.547,1.462-1.052,2.078-1.514s1.163-0.693,1.643-0.693c0.479,0,0.718,0.12,0.718,0.359c0,0.821-0.085,1.352-0.256,1.591
		c-4.105,5.304-8.066,7.955-11.881,7.955c-3.815,0-6.689-1.206-8.622-3.618s-2.899-5.294-2.899-8.647v-28.585h-3.849
		c-0.958,0-1.463-0.308-1.514-0.924c-0.052-0.616,0.042-1.009,0.282-1.18c1.813-1.163,4.311-3.25,7.492-6.261
		c0.342-0.376,0.804-0.94,1.386-1.693c0.581-0.752,1.428-1.779,2.54-3.079c1.111-1.3,1.959-1.95,2.541-1.95
		c0.581,0,0.872,0.24,0.872,0.718c0,0.069-0.582,2.31-1.745,6.723c0,0.616,0.273,0.941,0.821,0.975h13.087
		c1.505,0,2.258,2.122,2.258,6.363c0,0.206-0.137,0.308-0.41,0.308H952.384z"/>
	<path fill="#1A3018" d="M973.117,284.918c-0.343-0.068-0.514-0.308-0.514-0.718c0-0.616,0.804-1.026,2.412-1.232
		c3.695-0.547,5.543-2.497,5.543-5.851V249.97c0-1.437-0.788-2.429-2.361-2.977c-0.685-0.239-1.42-0.436-2.207-0.59
		c-0.787-0.154-1.411-0.299-1.873-0.436c-0.462-0.136-0.753-0.265-0.872-0.385c-0.12-0.12-0.18-0.376-0.18-0.77
		c0-0.393,0.257-0.727,0.77-1l13.087-6.159c0.41-0.205,0.667-0.308,0.77-0.308c0.582,0,0.873,0.41,0.873,1.231v38.541
		c0,3.354,1.847,5.304,5.542,5.851c1.607,0.206,2.412,0.564,2.412,1.078s-0.172,0.804-0.513,0.873H973.117z M983.817,222.924
		c-1.421,0-2.669-0.444-3.747-1.334c-1.077-0.889-1.616-2.13-1.616-3.721s0.513-2.848,1.539-3.772
		c1.027-0.924,2.25-1.386,3.67-1.386c1.419,0,2.617,0.548,3.593,1.643c0.975,1.095,1.462,2.275,1.462,3.541
		c0,1.266-0.462,2.421-1.386,3.464C986.408,222.403,985.236,222.924,983.817,222.924z"/>
	<path fill="#1A3018" d="M1038.243,268.753l-0.103-10.829c0-4.414-0.377-7.51-1.129-9.289c-0.753-1.778-1.711-3.122-2.874-4.028
		c-1.163-0.906-2.729-1.36-4.695-1.36c-1.968,0-6.133,1.54-12.496,4.619c-0.856,0.513-1.301,0.993-1.335,1.437v27.61
		c0,3.456,1.848,5.44,5.543,5.953c1.607,0.24,2.412,0.625,2.412,1.155c0,0.531-0.172,0.83-0.514,0.898h-22.889
		c-0.342-0.068-0.513-0.308-0.513-0.718c0-0.65,0.803-1.095,2.412-1.334c3.694-0.513,5.542-2.497,5.542-5.953v-29.458
		c0-1.437-0.787-2.429-2.36-2.977c-0.685-0.239-1.42-0.436-2.207-0.59c-0.787-0.154-1.411-0.299-1.873-0.436
		c-0.462-0.136-0.753-0.265-0.872-0.385c-0.121-0.12-0.18-0.376-0.18-0.77c0-0.393,0.256-0.727,0.77-1l13.087-6.159
		c0.41-0.205,0.667-0.308,0.77-0.308c0.581,0,0.872,0.41,0.872,1.231v8.006c0.103,0.342,0.239,0.513,0.411,0.513
		c0.205,0,0.94-0.308,2.206-0.924c2.942-1.471,5.902-2.891,8.879-4.259c2.977-1.368,5.439-2.053,7.39-2.053
		c7.903,0,11.854,7.202,11.854,21.605l-0.461,14.985v2.977c0,2.668,1.334,4.414,4.003,5.234c1.129,0.377,2.214,0.642,3.259,0.796
		c1.043,0.154,1.727,0.3,2.053,0.436c0.324,0.137,0.487,0.411,0.487,0.821c0,0.41-0.172,0.65-0.514,0.718h-24.735
		c-0.343-0.068-0.514-0.308-0.514-0.718c0-0.65,0.804-1.095,2.412-1.334c3.66-0.513,5.491-2.634,5.491-6.364
		C1038.106,274.792,1038.243,272.209,1038.243,268.753z"/>
	<path fill="#1A3018" d="M1094.546,242.272l13.753-0.616c0.787,0,1.3,0.086,1.54,0.257c0.239,0.171,0.495,0.762,0.77,1.771
		c0.273,1.009,0.411,1.959,0.411,2.848c0,0.89-0.086,1.403-0.257,1.54c-0.172,0.137-0.514,0.206-1.026,0.206h-11.394
		c0.206,0.376,0.428,0.77,0.668,1.18c0.238,0.411,0.547,1.095,0.924,2.053c0.376,0.958,0.564,2.438,0.564,4.439
		s-0.488,4.089-1.463,6.261c-0.976,2.173-2.404,4.098-4.285,5.773c-4.175,3.764-9.58,5.645-16.217,5.645
		c-1.745,0-3.662-0.325-5.748-0.975c-0.514,0.548-1.198,1.052-2.053,1.514c-0.855,0.462-1.693,0.933-2.515,1.411
		c-2.053,1.164-3.079,2.327-3.079,3.49c0,2.909,4.823,4.397,14.472,4.465c9.648,0.069,15.986,0.385,19.014,0.95
		c3.028,0.564,5.38,1.685,7.057,3.361c2.635,2.634,3.952,5.645,3.952,9.032c0,2.908-1.25,5.902-3.747,8.981
		c-4.345,5.44-10.982,9.066-19.911,10.88c-3.183,0.649-6.553,0.975-10.11,0.975c-6.467,0-11.376-1.172-14.729-3.516
		c-3.354-2.344-5.029-5.175-5.029-8.493c0-1.814,0.427-3.31,1.282-4.491c0.855-1.18,1.941-2.292,3.259-3.336
		c1.317-1.044,2.763-2.138,4.337-3.284c1.573-1.147,3.079-2.609,4.517-4.388c-3.285-0.274-6.1-1.318-8.442-3.131
		c-2.344-1.813-3.516-3.592-3.516-5.337c0-1.745,0.462-3.036,1.386-3.875c0.924-0.838,2.053-1.556,3.387-2.155
		c1.335-0.598,2.737-1.155,4.209-1.668c1.47-0.513,2.753-1.18,3.849-2.001c-3.832-1.505-6.792-3.583-8.879-6.235
		c-2.087-2.651-3.13-5.55-3.13-8.699c0-5.85,2.13-10.623,6.39-14.318c4.259-3.695,9.399-5.543,15.421-5.543
		S1090.987,238.919,1094.546,242.272z M1066.653,295.798c-0.805,0.787-1.463,1.625-1.976,2.515
		c-0.514,0.889-0.771,2.009-0.771,3.361c0,1.351,0.488,2.771,1.463,4.26c0.976,1.488,2.301,2.831,3.978,4.028
		c3.695,2.737,8.142,4.105,13.343,4.105c5.2,0,9.913-1.514,14.139-4.542s6.338-6.347,6.338-9.956c0-3.61-1.744-6.03-5.234-7.262
		c-1.643-0.548-5.868-0.89-12.676-1.026c-6.809-0.137-11.223-0.326-13.24-0.564c-0.891,1.026-1.806,1.932-2.746,2.72
		C1068.329,294.224,1067.457,295.011,1066.653,295.798z M1092.082,255.923c0-4.824-1.206-8.75-3.618-11.778
		s-5.603-4.542-9.571-4.542c-5.132,0-8.759,2.412-10.879,7.236c-0.821,1.847-1.232,3.969-1.232,6.363
		c0,4.893,1.009,8.964,3.028,12.214c2.463,3.9,5.696,5.851,9.699,5.851s7.099-1.352,9.289-4.054
		C1090.987,264.511,1092.082,260.747,1092.082,255.923z"/>
</g>
</svg>
